<?xml version="1.0" ?>
<svg id="Layer_1_1_" style="enable-background:new 0 0 16 16;" version="1.1" viewBox="0 0 16 16" xml:space="preserve"
     xmlns="http://www.w3.org/2000/svg" xmlns:xlink="http://www.w3.org/1999/xlink">
    <path fill="currentColor"
          d="M8,16c1.257,0,2.442-0.298,3.5-0.815C8.838,13.886,7,11.161,7,8s1.838-5.886,4.5-7.185C10.442,0.298,9.257,0,8,0  C3.582,0,0,3.582,0,8S3.582,16,8,16z"/>
    <path fill="currentColor"
          d="M14,3c0,1.105-0.895,2-2,2c1.105,0,2,0.895,2,2c0-1.105,0.895-2,2-2C14.895,5,14,4.105,14,3z"/>
    <path fill="currentColor"
          d="M10,6c0,1.105-0.895,2-2,2c1.105,0,2,0.895,2,2c0-1.105,0.895-2,2-2C10.895,8,10,7.105,10,6z"/>
    <path fill="currentColor"
          d="M13,13c0-1.105,0.895-2,2-2c-1.105,0-2-0.895-2-2c0,1.105-0.895,2-2,2C12.105,11,13,11.895,13,13z"/>
</svg>
